<svg width="1279" height="344" viewBox="0 0 1279 344" fill="none" xmlns="http://www.w3.org/2000/svg">
<g clip-path="url(#clip0_184_2)">
<g filter="url(#filter0_d_184_2)">
<path d="M128.631 210.32C93.9063 187.569 37.6968 221.981 31.951 239.982L12.7148 279.824L31.951 310.826L79.4168 327.577H181.11H258.139L288.017 268.323C275.109 250.322 259.037 217.32 251.043 210.32C217.817 240.322 148.449 223.305 128.631 210.32Z" fill="#9B66FF"/>
</g>
<g filter="url(#filter1_d_184_2)">
<path d="M207.809 8C211.123 8 213.809 10.6863 213.809 14C213.809 17.3137 211.123 20 207.809 20H198.239V96.6465C198.239 109.624 202.185 122.297 209.552 132.98L282.759 239.136C311.016 280.112 281.684 335.971 231.909 335.972H70.8748C21.0998 335.972 -8.23231 280.112 20.0251 239.136L87.6794 141.031C95.0469 130.348 98.9928 117.676 98.9929 104.698V20H88.8093C85.4956 20 82.8093 17.3137 82.8093 14C82.8093 10.6863 85.4956 8 88.8093 8H207.809ZM114.993 104.698C114.993 120.921 110.06 136.76 100.85 150.115L33.197 248.22C12.2594 278.582 33.9931 319.972 70.8748 319.972H231.909C268.502 319.971 290.184 279.225 270.07 248.933L269.587 248.219L196.381 142.063C187.171 128.709 182.239 112.869 182.239 96.6465V25.083H114.993V104.698Z" fill="#D2BBFF"/>
</g>
<ellipse cx="161.278" cy="171.461" rx="9.79223" ry="10.072" fill="#D2BBFF"/>
<ellipse cx="181.141" cy="202.517" rx="13.4294" ry="13.7091" fill="#D2BBFF"/>
<ellipse cx="105.601" cy="243.364" rx="13.4294" ry="13.1496" fill="#592AD0"/>
<ellipse cx="154.563" cy="243.644" rx="8.67312" ry="8.9529" fill="#592AD0"/>
<ellipse cx="126.585" cy="278.896" rx="9.79223" ry="9.51246" fill="#592AD0"/>
<path d="M400.7 69.44H432.2V147.92L417.44 149.54C412.28 149.54 408.2 148.04 405.2 145.04C402.2 142.04 400.7 137.96 400.7 132.8V69.44ZM417.44 149.54V124.16H473.42C474.26 125.48 475.04 127.22 475.76 129.38C476.48 131.54 476.84 133.88 476.84 136.4C476.84 140.84 475.88 144.14 473.96 146.3C472.04 148.46 469.4 149.54 466.04 149.54H417.44ZM432.2 111.02H400.7V39.56C402.14 39.32 404.24 39.02 407 38.66C409.88 38.18 412.64 37.94 415.28 37.94C421.28 37.94 425.6 38.96 428.24 41C430.88 43.04 432.2 47 432.2 52.88V111.02ZM528.085 129.56C530.125 129.56 532.345 129.38 534.745 129.02C537.265 128.54 539.125 127.94 540.325 127.22V112.82L527.365 113.9C524.005 114.14 521.245 114.86 519.085 116.06C516.925 117.26 515.845 119.06 515.845 121.46C515.845 123.86 516.745 125.84 518.545 127.4C520.465 128.84 523.645 129.56 528.085 129.56ZM526.645 58.82C539.725 58.82 550.165 61.52 557.965 66.92C565.885 72.2 569.845 80.48 569.845 91.76V132.08C569.845 135.2 568.945 137.78 567.145 139.82C565.465 141.74 563.425 143.42 561.025 144.86C557.185 147.14 552.505 148.88 546.985 150.08C541.465 151.28 535.165 151.88 528.085 151.88C515.485 151.88 505.345 149.48 497.665 144.68C490.105 139.76 486.325 132.38 486.325 122.54C486.325 114.26 488.785 107.9 493.705 103.46C498.745 99.02 506.365 96.26 516.565 95.18L540.145 92.66V91.4C540.145 87.92 538.585 85.46 535.465 84.02C532.465 82.46 528.085 81.68 522.325 81.68C517.885 81.68 513.445 82.16 509.005 83.12C504.685 84.08 500.785 85.28 497.305 86.72C495.745 85.64 494.425 84.02 493.345 81.86C492.265 79.58 491.725 77.24 491.725 74.84C491.725 69.08 494.785 65 500.905 62.6C504.385 61.28 508.465 60.32 513.145 59.72C517.945 59.12 522.445 58.82 526.645 58.82ZM647.415 82.58V104.54H610.335V82.58H647.415ZM636.255 104.54L637.155 87.62C647.715 87.62 656.475 88.76 663.435 91.04C670.395 93.32 675.615 96.62 679.095 100.94C682.695 105.26 684.495 110.6 684.495 116.96C684.495 128.72 680.055 137.48 671.175 143.24C662.295 149 649.635 151.88 633.195 151.88C630.435 151.88 627.135 151.76 623.295 151.52C619.455 151.28 615.555 150.8 611.595 150.08C607.635 149.48 604.035 148.58 600.795 147.38C594.195 144.86 590.895 140.48 590.895 134.24V50.18C590.895 47.66 591.615 45.74 593.055 44.42C594.495 42.98 596.355 41.84 598.635 41C602.715 39.56 607.815 38.54 613.935 37.94C620.175 37.22 626.475 36.86 632.835 36.86C648.075 36.86 659.835 39.5 668.115 44.78C676.515 49.94 680.715 57.86 680.715 68.54C680.715 74.54 678.855 79.58 675.135 83.66C671.535 87.62 666.375 90.62 659.655 92.66C652.935 94.58 644.955 95.54 635.715 95.54L634.635 82.58C639.795 82.58 643.515 81.62 645.795 79.7C648.195 77.78 649.395 74.96 649.395 71.24C649.395 68 648.015 65.42 645.255 63.5C642.615 61.58 638.595 60.62 633.195 60.62C631.395 60.62 629.295 60.68 626.895 60.8C624.615 60.92 622.815 61.1 621.495 61.34V126.5C623.175 126.98 625.335 127.34 627.975 127.58C630.735 127.7 633.255 127.76 635.535 127.76C640.335 127.76 644.295 126.8 647.415 124.88C650.655 122.84 652.275 119.72 652.275 115.52C652.275 111.56 650.895 108.74 648.135 107.06C645.495 105.38 641.535 104.54 636.255 104.54ZM714.233 118.94L713.153 98.78L754.733 91.94C754.493 89.54 753.293 87.14 751.133 84.74C748.973 82.34 745.613 81.14 741.053 81.14C736.253 81.14 732.233 82.7 728.993 85.82C725.873 88.94 724.193 93.38 723.953 99.14L725.033 114.26C726.233 119.78 728.933 123.62 733.133 125.78C737.453 127.94 742.253 129.02 747.533 129.02C752.573 129.02 757.373 128.36 761.933 127.04C766.493 125.72 770.153 124.28 772.913 122.72C774.833 123.92 776.453 125.6 777.773 127.76C779.093 129.92 779.753 132.2 779.753 134.6C779.753 138.56 778.253 141.86 775.253 144.5C772.373 147.02 768.353 148.88 763.193 150.08C758.033 151.28 752.093 151.88 745.373 151.88C736.013 151.88 727.553 150.14 719.993 146.66C712.553 143.06 706.613 137.72 702.173 130.64C697.853 123.56 695.693 114.68 695.693 104C695.693 96.08 696.953 89.24 699.473 83.48C702.113 77.72 705.593 73.04 709.913 69.44C714.233 65.84 719.033 63.2 724.313 61.52C729.713 59.72 735.233 58.82 740.873 58.82C749.393 58.82 756.833 60.5 763.193 63.86C769.553 67.1 774.533 71.6 778.133 77.36C781.733 83 783.533 89.54 783.533 96.98C783.533 101.06 782.393 104.18 780.113 106.34C777.833 108.5 774.653 109.88 770.573 110.48L714.233 118.94ZM813.022 118.94L811.942 98.78L853.522 91.94C853.282 89.54 852.082 87.14 849.922 84.74C847.762 82.34 844.402 81.14 839.842 81.14C835.042 81.14 831.022 82.7 827.782 85.82C824.662 88.94 822.982 93.38 822.742 99.14L823.822 114.26C825.022 119.78 827.722 123.62 831.922 125.78C836.242 127.94 841.042 129.02 846.322 129.02C851.362 129.02 856.162 128.36 860.722 127.04C865.282 125.72 868.942 124.28 871.702 122.72C873.622 123.92 875.242 125.6 876.562 127.76C877.882 129.92 878.542 132.2 878.542 134.6C878.542 138.56 877.042 141.86 874.042 144.5C871.162 147.02 867.142 148.88 861.982 150.08C856.822 151.28 850.882 151.88 844.162 151.88C834.802 151.88 826.342 150.14 818.782 146.66C811.342 143.06 805.402 137.72 800.962 130.64C796.642 123.56 794.482 114.68 794.482 104C794.482 96.08 795.742 89.24 798.262 83.48C800.902 77.72 804.382 73.04 808.702 69.44C813.022 65.84 817.822 63.2 823.102 61.52C828.502 59.72 834.022 58.82 839.662 58.82C848.182 58.82 855.622 60.5 861.982 63.86C868.342 67.1 873.322 71.6 876.922 77.36C880.522 83 882.322 89.54 882.322 96.98C882.322 101.06 881.182 104.18 878.902 106.34C876.622 108.5 873.442 109.88 869.362 110.48L813.022 118.94Z" fill="#592AD0"/>
<path d="M414.29 239.25C418.01 239.25 421.34 240.06 424.28 241.68C427.28 243.24 429.62 245.64 431.3 248.88C433.04 252.12 433.91 256.23 433.91 261.21C433.91 266.25 433.01 270.39 431.21 273.63C429.47 276.87 427.04 279.27 423.92 280.83C420.8 282.39 417.17 283.17 413.03 283.17C410.09 283.17 407.42 282.81 405.02 282.09C402.68 281.37 400.76 280.59 399.26 279.75C398 278.91 397.13 278.13 396.65 277.41C396.17 276.69 395.93 275.7 395.93 274.44V244.47H403.13V274.44C404.03 275.1 405.35 275.73 407.09 276.33C408.83 276.93 410.81 277.23 413.03 277.23C417.11 277.23 420.38 275.94 422.84 273.36C425.36 270.78 426.62 266.73 426.62 261.21C426.62 255.63 425.36 251.58 422.84 249.06C420.32 246.48 417.11 245.19 413.21 245.19C410.81 245.19 408.68 245.67 406.82 246.63C404.96 247.53 403.43 248.58 402.23 249.78L400.88 243.93C402.2 242.91 403.97 241.89 406.19 240.87C408.41 239.79 411.11 239.25 414.29 239.25ZM403.13 245.91H395.93V223.68C396.23 223.56 396.68 223.44 397.28 223.32C397.94 223.14 398.63 223.05 399.35 223.05C400.61 223.05 401.54 223.32 402.14 223.86C402.8 224.34 403.13 225.15 403.13 226.29V245.91ZM447.755 265.8L447.395 260.13L474.575 256.44C474.335 253.14 473.195 250.44 471.155 248.34C469.115 246.18 466.295 245.1 462.695 245.1C458.975 245.1 455.885 246.45 453.425 249.15C451.025 251.79 449.825 255.6 449.825 260.58V262.56C450.245 267.36 451.805 271.02 454.505 273.54C457.265 276 461.015 277.23 465.755 277.23C468.275 277.23 470.555 276.81 472.595 275.97C474.635 275.13 476.255 274.23 477.455 273.27C478.115 273.69 478.625 274.2 478.985 274.8C479.405 275.34 479.615 275.97 479.615 276.69C479.615 277.83 478.955 278.91 477.635 279.93C476.375 280.89 474.665 281.67 472.505 282.27C470.405 282.87 468.035 283.17 465.395 283.17C460.775 283.17 456.755 282.33 453.335 280.65C449.975 278.97 447.365 276.48 445.505 273.18C443.705 269.82 442.805 265.74 442.805 260.94C442.805 257.52 443.285 254.49 444.245 251.85C445.265 249.15 446.645 246.87 448.385 245.01C450.185 243.15 452.315 241.74 454.775 240.78C457.235 239.76 459.905 239.25 462.785 239.25C466.445 239.25 469.655 240.03 472.415 241.59C475.235 243.15 477.425 245.34 478.985 248.16C480.605 250.92 481.415 254.1 481.415 257.7C481.415 259.02 481.115 259.98 480.515 260.58C479.915 261.12 479.075 261.45 477.995 261.57L447.755 265.8ZM494.424 265.8L494.064 260.13L521.244 256.44C521.004 253.14 519.864 250.44 517.824 248.34C515.784 246.18 512.964 245.1 509.364 245.1C505.644 245.1 502.554 246.45 500.094 249.15C497.694 251.79 496.494 255.6 496.494 260.58V262.56C496.914 267.36 498.474 271.02 501.174 273.54C503.934 276 507.684 277.23 512.424 277.23C514.944 277.23 517.224 276.81 519.264 275.97C521.304 275.13 522.924 274.23 524.124 273.27C524.784 273.69 525.294 274.2 525.654 274.8C526.074 275.34 526.284 275.97 526.284 276.69C526.284 277.83 525.624 278.91 524.304 279.93C523.044 280.89 521.334 281.67 519.174 282.27C517.074 282.87 514.704 283.17 512.064 283.17C507.444 283.17 503.424 282.33 500.004 280.65C496.644 278.97 494.034 276.48 492.174 273.18C490.374 269.82 489.474 265.74 489.474 260.94C489.474 257.52 489.954 254.49 490.914 251.85C491.934 249.15 493.314 246.87 495.054 245.01C496.854 243.15 498.984 241.74 501.444 240.78C503.904 239.76 506.574 239.25 509.454 239.25C513.114 239.25 516.324 240.03 519.084 241.59C521.904 243.15 524.094 245.34 525.654 248.16C527.274 250.92 528.084 254.1 528.084 257.7C528.084 259.02 527.784 259.98 527.184 260.58C526.584 261.12 525.744 261.45 524.664 261.57L494.424 265.8ZM554.425 277.05C558.445 277.05 561.475 276.15 563.515 274.35C565.615 272.49 566.665 270.12 566.665 267.24C566.665 264.78 565.855 262.74 564.235 261.12C562.675 259.5 560.185 258.21 556.765 257.25L548.935 254.91C546.415 254.13 544.225 253.14 542.365 251.94C540.505 250.68 539.065 249.15 538.045 247.35C537.085 245.49 536.605 243.33 536.605 240.87C536.605 236.25 538.285 232.65 541.645 230.07C545.005 227.43 549.475 226.11 555.055 226.11C558.295 226.11 561.175 226.47 563.695 227.19C566.275 227.85 568.285 228.72 569.725 229.8C571.225 230.88 571.975 232.02 571.975 233.22C571.975 234 571.765 234.72 571.345 235.38C570.925 235.98 570.385 236.46 569.725 236.82C568.225 235.62 566.185 234.57 563.605 233.67C561.085 232.77 558.325 232.32 555.325 232.32C551.845 232.32 549.085 233.1 547.045 234.66C545.005 236.16 543.985 238.23 543.985 240.87C543.985 242.97 544.705 244.68 546.145 246C547.645 247.32 550.045 248.46 553.345 249.42L558.835 251.04C563.575 252.36 567.295 254.28 569.995 256.8C572.755 259.32 574.135 262.8 574.135 267.24C574.135 271.98 572.395 275.82 568.915 278.76C565.495 281.7 560.665 283.17 554.425 283.17C550.765 283.17 547.555 282.78 544.795 282C542.095 281.16 539.965 280.14 538.405 278.94C536.905 277.68 536.155 276.45 536.155 275.25C536.155 274.23 536.455 273.39 537.055 272.73C537.715 272.01 538.465 271.5 539.305 271.2C540.685 272.52 542.635 273.84 545.155 275.16C547.675 276.42 550.765 277.05 554.425 277.05ZM618.461 253.2V263.55H611.261V253.74C611.261 250.8 610.391 248.64 608.651 247.26C606.971 245.88 604.721 245.19 601.901 245.19C600.041 245.19 598.241 245.49 596.501 246.09C594.761 246.69 593.291 247.38 592.091 248.16V263.55H584.891V248.52C584.891 247.32 585.131 246.3 585.611 245.46C586.151 244.62 587.051 243.81 588.311 243.03C589.931 242.01 591.971 241.14 594.431 240.42C596.951 239.64 599.471 239.25 601.991 239.25C605.051 239.25 607.751 239.73 610.091 240.69C612.431 241.59 614.171 242.85 615.311 244.47C615.671 244.83 615.971 245.16 616.211 245.46C616.451 245.76 616.691 246.15 616.931 246.63C617.351 247.35 617.711 248.28 618.011 249.42C618.311 250.56 618.461 251.82 618.461 253.2ZM644.831 253.38V263.55H637.631V253.74C637.631 250.8 636.791 248.64 635.111 247.26C633.431 245.88 631.181 245.19 628.361 245.19C626.261 245.19 624.221 245.64 622.241 246.54C620.321 247.38 618.581 248.61 617.021 250.23L614.141 245.01C615.701 243.45 617.741 242.1 620.261 240.96C622.781 239.82 625.661 239.25 628.901 239.25C632.141 239.25 634.931 239.76 637.271 240.78C639.671 241.8 641.531 243.36 642.851 245.46C644.171 247.56 644.831 250.2 644.831 253.38ZM584.891 258.78H592.091V281.82C591.791 281.94 591.341 282.06 590.741 282.18C590.141 282.36 589.481 282.45 588.761 282.45C587.501 282.45 586.541 282.21 585.881 281.73C585.221 281.19 584.891 280.35 584.891 279.21V258.78ZM611.261 258.78H618.461V281.82C618.161 281.94 617.681 282.06 617.021 282.18C616.421 282.36 615.791 282.45 615.131 282.45C613.811 282.45 612.821 282.21 612.161 281.73C611.561 281.19 611.261 280.35 611.261 279.21V258.78ZM637.631 258.78H644.831V281.82C644.531 281.94 644.051 282.06 643.391 282.18C642.791 282.36 642.161 282.45 641.501 282.45C640.181 282.45 639.191 282.21 638.531 281.73C637.931 281.19 637.631 280.35 637.631 279.21V258.78ZM673.217 277.32C675.737 277.32 677.807 277.08 679.427 276.6C681.107 276.06 682.307 275.55 683.027 275.07V262.02L671.867 263.19C668.747 263.43 666.437 264.12 664.937 265.26C663.437 266.4 662.687 268.05 662.687 270.21C662.687 272.43 663.557 274.17 665.297 275.43C667.097 276.69 669.737 277.32 673.217 277.32ZM673.127 239.25C678.347 239.25 682.487 240.42 685.547 242.76C688.607 245.1 690.137 248.79 690.137 253.83V275.16C690.137 276.48 689.867 277.5 689.327 278.22C688.847 278.88 688.097 279.51 687.077 280.11C685.637 280.89 683.717 281.61 681.317 282.27C678.917 282.93 676.217 283.26 673.217 283.26C667.577 283.26 663.197 282.15 660.077 279.93C657.017 277.71 655.487 274.5 655.487 270.3C655.487 266.4 656.777 263.43 659.357 261.39C661.997 259.29 665.627 258.03 670.247 257.61L683.027 256.35V253.83C683.027 250.83 682.127 248.64 680.327 247.26C678.527 245.88 676.097 245.19 673.037 245.19C670.577 245.19 668.207 245.55 665.927 246.27C663.707 246.99 661.727 247.8 659.987 248.7C659.507 248.28 659.057 247.8 658.637 247.26C658.277 246.66 658.097 246.06 658.097 245.46C658.097 243.9 658.967 242.7 660.707 241.86C662.327 241.02 664.187 240.39 666.287 239.97C668.447 239.49 670.727 239.25 673.127 239.25ZM710.479 248.16V262.38H703.279V248.7C703.279 247.32 703.519 246.24 703.999 245.46C704.539 244.62 705.409 243.81 706.609 243.03C708.169 242.01 710.299 241.14 712.999 240.42C715.699 239.64 718.699 239.25 721.999 239.25C726.799 239.25 729.199 240.45 729.199 242.85C729.199 243.45 729.109 244.02 728.929 244.56C728.749 245.04 728.509 245.46 728.209 245.82C727.609 245.7 726.829 245.58 725.869 245.46C724.909 245.34 723.949 245.28 722.989 245.28C720.229 245.28 717.799 245.58 715.699 246.18C713.599 246.72 711.859 247.38 710.479 248.16ZM703.279 258.24L710.479 259.32V281.82C710.179 281.94 709.729 282.06 709.129 282.18C708.529 282.36 707.869 282.45 707.149 282.45C705.889 282.45 704.929 282.21 704.269 281.73C703.609 281.19 703.279 280.35 703.279 279.21V258.24ZM737.735 258.24H744.935V270.66C744.935 273.06 745.625 274.77 747.005 275.79C748.385 276.75 750.275 277.23 752.675 277.23C753.695 277.23 754.835 277.05 756.095 276.69C757.355 276.33 758.405 275.91 759.245 275.43C759.605 275.79 759.935 276.24 760.235 276.78C760.535 277.32 760.685 277.95 760.685 278.67C760.685 279.99 759.905 281.07 758.345 281.91C756.785 282.75 754.625 283.17 751.865 283.17C747.665 283.17 744.245 282.24 741.605 280.38C739.025 278.52 737.735 275.43 737.735 271.11V258.24ZM741.425 247.26V241.32H759.695C759.875 241.56 760.055 241.95 760.235 242.49C760.415 243.03 760.505 243.6 760.505 244.2C760.505 245.16 760.265 245.91 759.785 246.45C759.305 246.99 758.645 247.26 757.805 247.26H741.425ZM744.935 260.94H737.735V228.36C738.035 228.24 738.485 228.12 739.085 228C739.745 227.82 740.435 227.73 741.155 227.73C742.415 227.73 743.345 228 743.945 228.54C744.605 229.02 744.935 229.83 744.935 230.97V260.94ZM771.38 290.46C770.42 292.08 769.25 292.89 767.87 292.89C766.55 292.89 765.47 292.38 764.63 291.36C765.17 289.8 765.77 287.94 766.43 285.78C767.15 283.68 767.81 281.52 768.41 279.3C769.01 277.08 769.46 275.16 769.76 273.54C770.24 273.3 770.75 273.12 771.29 273C771.89 272.82 772.52 272.73 773.18 272.73C774.26 272.73 775.1 273 775.7 273.54C776.3 274.02 776.6 274.86 776.6 276.06C776.6 277.38 776.27 279.03 775.61 281.01C775.01 282.93 774.29 284.76 773.45 286.5C772.61 288.3 771.92 289.62 771.38 290.46ZM821.575 239.25C825.295 239.25 828.625 240.06 831.565 241.68C834.565 243.24 836.905 245.64 838.585 248.88C840.325 252.12 841.195 256.23 841.195 261.21C841.195 266.25 840.295 270.39 838.495 273.63C836.755 276.87 834.325 279.27 831.205 280.83C828.085 282.39 824.455 283.17 820.315 283.17C817.375 283.17 814.705 282.81 812.305 282.09C809.965 281.37 808.045 280.59 806.545 279.75C805.285 278.91 804.415 278.13 803.935 277.41C803.455 276.69 803.215 275.7 803.215 274.44V244.47H810.415V274.44C811.315 275.1 812.635 275.73 814.375 276.33C816.115 276.93 818.095 277.23 820.315 277.23C824.395 277.23 827.665 275.94 830.125 273.36C832.645 270.78 833.905 266.73 833.905 261.21C833.905 255.63 832.645 251.58 830.125 249.06C827.605 246.48 824.395 245.19 820.495 245.19C818.095 245.19 815.965 245.67 814.105 246.63C812.245 247.53 810.715 248.58 809.515 249.78L808.165 243.93C809.485 242.91 811.255 241.89 813.475 240.87C815.695 239.79 818.395 239.25 821.575 239.25ZM810.415 245.91H803.215V223.68C803.515 223.56 803.965 223.44 804.565 223.32C805.225 223.14 805.915 223.05 806.635 223.05C807.895 223.05 808.825 223.32 809.425 223.86C810.085 224.34 810.415 225.15 810.415 226.29V245.91ZM855.04 265.8L854.68 260.13L881.86 256.44C881.62 253.14 880.48 250.44 878.44 248.34C876.4 246.18 873.58 245.1 869.98 245.1C866.26 245.1 863.17 246.45 860.71 249.15C858.31 251.79 857.11 255.6 857.11 260.58V262.56C857.53 267.36 859.09 271.02 861.79 273.54C864.55 276 868.3 277.23 873.04 277.23C875.56 277.23 877.84 276.81 879.88 275.97C881.92 275.13 883.54 274.23 884.74 273.27C885.4 273.69 885.91 274.2 886.27 274.8C886.69 275.34 886.9 275.97 886.9 276.69C886.9 277.83 886.24 278.91 884.92 279.93C883.66 280.89 881.95 281.67 879.79 282.27C877.69 282.87 875.32 283.17 872.68 283.17C868.06 283.17 864.04 282.33 860.62 280.65C857.26 278.97 854.65 276.48 852.79 273.18C850.99 269.82 850.09 265.74 850.09 260.94C850.09 257.52 850.57 254.49 851.53 251.85C852.55 249.15 853.93 246.87 855.67 245.01C857.47 243.15 859.6 241.74 862.06 240.78C864.52 239.76 867.19 239.25 870.07 239.25C873.73 239.25 876.94 240.03 879.7 241.59C882.52 243.15 884.71 245.34 886.27 248.16C887.89 250.92 888.7 254.1 888.7 257.7C888.7 259.02 888.4 259.98 887.8 260.58C887.2 261.12 886.36 261.45 885.28 261.57L855.04 265.8ZM901.71 265.8L901.35 260.13L928.53 256.44C928.29 253.14 927.15 250.44 925.11 248.34C923.07 246.18 920.25 245.1 916.65 245.1C912.93 245.1 909.84 246.45 907.38 249.15C904.98 251.79 903.78 255.6 903.78 260.58V262.56C904.2 267.36 905.76 271.02 908.46 273.54C911.22 276 914.97 277.23 919.71 277.23C922.23 277.23 924.51 276.81 926.55 275.97C928.59 275.13 930.21 274.23 931.41 273.27C932.07 273.69 932.58 274.2 932.94 274.8C933.36 275.34 933.57 275.97 933.57 276.69C933.57 277.83 932.91 278.91 931.59 279.93C930.33 280.89 928.62 281.67 926.46 282.27C924.36 282.87 921.99 283.17 919.35 283.17C914.73 283.17 910.71 282.33 907.29 280.65C903.93 278.97 901.32 276.48 899.46 273.18C897.66 269.82 896.76 265.74 896.76 260.94C896.76 257.52 897.24 254.49 898.2 251.85C899.22 249.15 900.6 246.87 902.34 245.01C904.14 243.15 906.27 241.74 908.73 240.78C911.19 239.76 913.86 239.25 916.74 239.25C920.4 239.25 923.61 240.03 926.37 241.59C929.19 243.15 931.38 245.34 932.94 248.16C934.56 250.92 935.37 254.1 935.37 257.7C935.37 259.02 935.07 259.98 934.47 260.58C933.87 261.12 933.03 261.45 931.95 261.57L901.71 265.8ZM987.429 233.31C987.429 234.09 987.159 234.81 986.619 235.47C986.139 236.07 985.569 236.52 984.909 236.82C983.409 235.74 981.579 234.72 979.419 233.76C977.319 232.8 974.589 232.32 971.229 232.32C967.569 232.32 964.269 233.16 961.329 234.84C958.449 236.52 956.139 239.04 954.399 242.4C952.719 245.7 951.879 249.81 951.879 254.73C951.879 262.11 953.679 267.66 957.279 271.38C960.939 275.1 965.679 276.96 971.499 276.96C974.619 276.96 977.349 276.51 979.689 275.61C982.029 274.71 983.949 273.69 985.449 272.55C986.049 272.79 986.619 273.24 987.159 273.9C987.699 274.5 987.969 275.22 987.969 276.06C987.969 276.66 987.789 277.26 987.429 277.86C987.129 278.4 986.589 278.94 985.809 279.48C984.429 280.44 982.539 281.28 980.139 282C977.739 282.78 974.679 283.17 970.959 283.17C965.979 283.17 961.449 282.12 957.369 280.02C953.349 277.86 950.169 274.68 947.829 270.48C945.489 266.28 944.319 261.03 944.319 254.73C944.319 248.43 945.519 243.15 947.919 238.89C950.379 234.63 953.589 231.45 957.549 229.35C961.569 227.19 965.949 226.11 970.689 226.11C973.989 226.11 976.899 226.47 979.419 227.19C981.939 227.91 983.889 228.84 985.269 229.98C986.709 231.06 987.429 232.17 987.429 233.31ZM1005.88 248.16V262.38H998.68V248.7C998.68 247.32 998.92 246.24 999.4 245.46C999.94 244.62 1000.81 243.81 1002.01 243.03C1003.57 242.01 1005.7 241.14 1008.4 240.42C1011.1 239.64 1014.1 239.25 1017.4 239.25C1022.2 239.25 1024.6 240.45 1024.6 242.85C1024.6 243.45 1024.51 244.02 1024.33 244.56C1024.15 245.04 1023.91 245.46 1023.61 245.82C1023.01 245.7 1022.23 245.58 1021.27 245.46C1020.31 245.34 1019.35 245.28 1018.39 245.28C1015.63 245.28 1013.2 245.58 1011.1 246.18C1009 246.72 1007.26 247.38 1005.88 248.16ZM998.68 258.24L1005.88 259.32V281.82C1005.58 281.94 1005.13 282.06 1004.53 282.18C1003.93 282.36 1003.27 282.45 1002.55 282.45C1001.29 282.45 1000.33 282.21 999.67 281.73C999.01 281.19 998.68 280.35 998.68 279.21V258.24ZM1034.78 265.8L1034.42 260.13L1061.6 256.44C1061.36 253.14 1060.22 250.44 1058.18 248.34C1056.14 246.18 1053.32 245.1 1049.72 245.1C1046 245.1 1042.91 246.45 1040.45 249.15C1038.05 251.79 1036.85 255.6 1036.85 260.58V262.56C1037.27 267.36 1038.83 271.02 1041.53 273.54C1044.29 276 1048.04 277.23 1052.78 277.23C1055.3 277.23 1057.58 276.81 1059.62 275.97C1061.66 275.13 1063.28 274.23 1064.48 273.27C1065.14 273.69 1065.65 274.2 1066.01 274.8C1066.43 275.34 1066.64 275.97 1066.64 276.69C1066.64 277.83 1065.98 278.91 1064.66 279.93C1063.4 280.89 1061.69 281.67 1059.53 282.27C1057.43 282.87 1055.06 283.17 1052.42 283.17C1047.8 283.17 1043.78 282.33 1040.36 280.65C1037 278.97 1034.39 276.48 1032.53 273.18C1030.73 269.82 1029.83 265.74 1029.83 260.94C1029.83 257.52 1030.31 254.49 1031.27 251.85C1032.29 249.15 1033.67 246.87 1035.41 245.01C1037.21 243.15 1039.34 241.74 1041.8 240.78C1044.26 239.76 1046.93 239.25 1049.81 239.25C1053.47 239.25 1056.68 240.03 1059.44 241.59C1062.26 243.15 1064.45 245.34 1066.01 248.16C1067.63 250.92 1068.44 254.1 1068.44 257.7C1068.44 259.02 1068.14 259.98 1067.54 260.58C1066.94 261.12 1066.1 261.45 1065.02 261.57L1034.78 265.8ZM1093.69 277.32C1096.21 277.32 1098.28 277.08 1099.9 276.6C1101.58 276.06 1102.78 275.55 1103.5 275.07V262.02L1092.34 263.19C1089.22 263.43 1086.91 264.12 1085.41 265.26C1083.91 266.4 1083.16 268.05 1083.16 270.21C1083.16 272.43 1084.03 274.17 1085.77 275.43C1087.57 276.69 1090.21 277.32 1093.69 277.32ZM1093.6 239.25C1098.82 239.25 1102.96 240.42 1106.02 242.76C1109.08 245.1 1110.61 248.79 1110.61 253.83V275.16C1110.61 276.48 1110.34 277.5 1109.8 278.22C1109.32 278.88 1108.57 279.51 1107.55 280.11C1106.11 280.89 1104.19 281.61 1101.79 282.27C1099.39 282.93 1096.69 283.26 1093.69 283.26C1088.05 283.26 1083.67 282.15 1080.55 279.93C1077.49 277.71 1075.96 274.5 1075.96 270.3C1075.96 266.4 1077.25 263.43 1079.83 261.39C1082.47 259.29 1086.1 258.03 1090.72 257.61L1103.5 256.35V253.83C1103.5 250.83 1102.6 248.64 1100.8 247.26C1099 245.88 1096.57 245.19 1093.51 245.19C1091.05 245.19 1088.68 245.55 1086.4 246.27C1084.18 246.99 1082.2 247.8 1080.46 248.7C1079.98 248.28 1079.53 247.8 1079.11 247.26C1078.75 246.66 1078.57 246.06 1078.57 245.46C1078.57 243.9 1079.44 242.7 1081.18 241.86C1082.8 241.02 1084.66 240.39 1086.76 239.97C1088.92 239.49 1091.2 239.25 1093.6 239.25ZM1123.84 258.24H1131.04V270.66C1131.04 273.06 1131.73 274.77 1133.11 275.79C1134.49 276.75 1136.38 277.23 1138.78 277.23C1139.8 277.23 1140.94 277.05 1142.2 276.69C1143.46 276.33 1144.51 275.91 1145.35 275.43C1145.71 275.79 1146.04 276.24 1146.34 276.78C1146.64 277.32 1146.79 277.95 1146.79 278.67C1146.79 279.99 1146.01 281.07 1144.45 281.91C1142.89 282.75 1140.73 283.17 1137.97 283.17C1133.77 283.17 1130.35 282.24 1127.71 280.38C1125.13 278.52 1123.84 275.43 1123.84 271.11V258.24ZM1127.53 247.26V241.32H1145.8C1145.98 241.56 1146.16 241.95 1146.34 242.49C1146.52 243.03 1146.61 243.6 1146.61 244.2C1146.61 245.16 1146.37 245.91 1145.89 246.45C1145.41 246.99 1144.75 247.26 1143.91 247.26H1127.53ZM1131.04 260.94H1123.84V228.36C1124.14 228.24 1124.59 228.12 1125.19 228C1125.85 227.82 1126.54 227.73 1127.26 227.73C1128.52 227.73 1129.45 228 1130.05 228.54C1130.71 229.02 1131.04 229.83 1131.04 230.97V260.94ZM1156.6 227.28C1156.6 226.02 1157.05 224.97 1157.95 224.13C1158.85 223.23 1159.96 222.78 1161.28 222.78C1162.66 222.78 1163.77 223.23 1164.61 224.13C1165.45 224.97 1165.87 226.02 1165.87 227.28C1165.87 228.54 1165.45 229.62 1164.61 230.52C1163.77 231.36 1162.66 231.78 1161.28 231.78C1159.96 231.78 1158.85 231.36 1157.95 230.52C1157.05 229.62 1156.6 228.54 1156.6 227.28ZM1157.68 258.24H1164.88V281.82C1164.58 281.94 1164.13 282.06 1163.53 282.18C1162.93 282.36 1162.27 282.45 1161.55 282.45C1160.29 282.45 1159.33 282.21 1158.67 281.73C1158.01 281.19 1157.68 280.35 1157.68 279.21V258.24ZM1164.88 261.75H1157.68V240.6C1157.98 240.48 1158.43 240.36 1159.03 240.24C1159.69 240.06 1160.38 239.97 1161.1 239.97C1162.36 239.97 1163.29 240.24 1163.89 240.78C1164.55 241.26 1164.88 242.1 1164.88 243.3V261.75ZM1210.08 239.61C1211.1 239.61 1211.91 239.88 1212.51 240.42C1213.17 240.96 1213.5 241.74 1213.5 242.76C1213.5 243.54 1213.17 245.01 1212.51 247.17C1211.85 249.33 1210.98 251.91 1209.9 254.91C1208.82 257.91 1207.62 261.06 1206.3 264.36C1205.04 267.6 1203.72 270.75 1202.34 273.81C1201.02 276.81 1199.79 279.42 1198.65 281.64C1198.35 281.88 1197.81 282.09 1197.03 282.27C1196.31 282.45 1195.53 282.54 1194.69 282.54C1193.67 282.54 1192.77 282.36 1191.99 282C1191.21 281.7 1190.67 281.25 1190.37 280.65C1189.71 279.45 1188.84 277.71 1187.76 275.43C1186.74 273.09 1185.63 270.45 1184.43 267.51C1183.23 264.57 1182 261.54 1180.74 258.42C1179.54 255.24 1178.43 252.21 1177.41 249.33C1176.39 246.39 1175.55 243.81 1174.89 241.59C1175.31 240.99 1175.88 240.51 1176.6 240.15C1177.32 239.79 1178.04 239.61 1178.76 239.61C1179.84 239.61 1180.68 239.88 1181.28 240.42C1181.88 240.96 1182.39 241.86 1182.81 243.12L1188.39 259.23C1188.87 260.61 1189.5 262.32 1190.28 264.36C1191.06 266.4 1191.84 268.44 1192.62 270.48C1193.4 272.52 1194.03 274.23 1194.51 275.61H1194.87C1197.27 269.55 1199.52 263.58 1201.62 257.7C1203.72 251.76 1205.52 245.97 1207.02 240.33C1207.8 239.85 1208.82 239.61 1210.08 239.61ZM1225.41 265.8L1225.05 260.13L1252.23 256.44C1251.99 253.14 1250.85 250.44 1248.81 248.34C1246.77 246.18 1243.95 245.1 1240.35 245.1C1236.63 245.1 1233.54 246.45 1231.08 249.15C1228.68 251.79 1227.48 255.6 1227.48 260.58V262.56C1227.9 267.36 1229.46 271.02 1232.16 273.54C1234.92 276 1238.67 277.23 1243.41 277.23C1245.93 277.23 1248.21 276.81 1250.25 275.97C1252.29 275.13 1253.91 274.23 1255.11 273.27C1255.77 273.69 1256.28 274.2 1256.64 274.8C1257.06 275.34 1257.27 275.97 1257.27 276.69C1257.27 277.83 1256.61 278.91 1255.29 279.93C1254.03 280.89 1252.32 281.67 1250.16 282.27C1248.06 282.87 1245.69 283.17 1243.05 283.17C1238.43 283.17 1234.41 282.33 1230.99 280.65C1227.63 278.97 1225.02 276.48 1223.16 273.18C1221.36 269.82 1220.46 265.74 1220.46 260.94C1220.46 257.52 1220.94 254.49 1221.9 251.85C1222.92 249.15 1224.3 246.87 1226.04 245.01C1227.84 243.15 1229.97 241.74 1232.43 240.78C1234.89 239.76 1237.56 239.25 1240.44 239.25C1244.1 239.25 1247.31 240.03 1250.07 241.59C1252.89 243.15 1255.08 245.34 1256.64 248.16C1258.26 250.92 1259.07 254.1 1259.07 257.7C1259.07 259.02 1258.77 259.98 1258.17 260.58C1257.57 261.12 1256.73 261.45 1255.65 261.57L1225.41 265.8Z" fill="#592AD0"/>
</g>
<defs>
<filter id="filter0_d_184_2" x="8.71484" y="202.796" width="283.302" height="132.781" filterUnits="userSpaceOnUse" color-interpolation-filters="sRGB">
<feFlood flood-opacity="0" result="BackgroundImageFix"/>
<feColorMatrix in="SourceAlpha" type="matrix" values="0 0 0 0 0 0 0 0 0 0 0 0 0 0 0 0 0 0 127 0" result="hardAlpha"/>
<feOffset dy="4"/>
<feGaussianBlur stdDeviation="2"/>
<feComposite in2="hardAlpha" operator="out"/>
<feColorMatrix type="matrix" values="0 0 0 0 0.34902 0 0 0 0 0.164706 0 0 0 0 0.815686 0 0 0 1 0"/>
<feBlend mode="normal" in2="BackgroundImageFix" result="effect1_dropShadow_184_2"/>
<feBlend mode="normal" in="SourceGraphic" in2="effect1_dropShadow_184_2" result="shape"/>
</filter>
<filter id="filter1_d_184_2" x="5" y="8" width="292.783" height="335.972" filterUnits="userSpaceOnUse" color-interpolation-filters="sRGB">
<feFlood flood-opacity="0" result="BackgroundImageFix"/>
<feColorMatrix in="SourceAlpha" type="matrix" values="0 0 0 0 0 0 0 0 0 0 0 0 0 0 0 0 0 0 127 0" result="hardAlpha"/>
<feOffset dy="4"/>
<feGaussianBlur stdDeviation="2"/>
<feComposite in2="hardAlpha" operator="out"/>
<feColorMatrix type="matrix" values="0 0 0 0 0.34902 0 0 0 0 0.164706 0 0 0 0 0.815686 0 0 0 1 0"/>
<feBlend mode="normal" in2="BackgroundImageFix" result="effect1_dropShadow_184_2"/>
<feBlend mode="normal" in="SourceGraphic" in2="effect1_dropShadow_184_2" result="shape"/>
</filter>
<clipPath id="clip0_184_2">
<rect width="1279" height="344" fill="white"/>
</clipPath>
</defs>
</svg>
