<svg width="150" height="39" viewBox="0 0 150 39" fill="none" xmlns="http://www.w3.org/2000/svg">
<rect width="150" height="39" fill="white"/>
<path d="M16.8939 23.7284L9.47558 20.8322C4.03891 21.8484 4.03885 25.2527 4.03885 25.4559C3.68318 37.0407 0.27892 35.7704 0.0756791 36.0753C-0.889716 38.6158 7.69722 38.6666 8.05289 38.6666C15.9285 37.8028 18.8755 31.4516 18.8755 30.8926C19.6884 27.153 17.8931 24.5583 16.8939 23.7284Z" fill="#10B981"/>
<rect x="10.8019" y="15.9328" width="9.55233" height="3.25186" rx="1.62593" transform="rotate(22.5981 10.8019 15.9328)" fill="#10B981"/>
<path d="M23.5252 0.519572C27.1564 2.59928 24.3088 9.64538 21.3779 14.7506C20.3078 16.6146 17.1913 16.9543 15.1863 16.1801C13.1764 15.4041 12.8569 13.6151 13.478 11.5521C18.0506 -3.63502 23.2409 0.519572 23.5252 0.519572Z" fill="#10B981"/>
<path d="M40.512 22.608H45.216V25.324C45.216 25.7907 45.3653 26.136 45.664 26.36C45.9813 26.5653 46.42 26.668 46.98 26.668C47.26 26.668 47.5493 26.6493 47.848 26.612C48.1467 26.556 48.408 26.4907 48.632 26.416C48.8 26.6027 48.94 26.8267 49.052 27.088C49.1827 27.3493 49.248 27.6573 49.248 28.012C49.248 28.7027 48.9773 29.2813 48.436 29.748C47.9133 30.196 46.98 30.42 45.636 30.42C43.9933 30.42 42.724 30.0467 41.828 29.3C40.9507 28.5533 40.512 27.34 40.512 25.66V22.608ZM43.592 20.34V16.7H48.884C48.996 16.8867 49.0987 17.1387 49.192 17.456C49.304 17.7733 49.36 18.1187 49.36 18.492C49.36 19.1453 49.2107 19.6213 48.912 19.92C48.632 20.2 48.2493 20.34 47.764 20.34H43.592ZM45.216 23.28H40.512V13.228C40.7173 13.172 41.0067 13.116 41.38 13.06C41.772 12.9853 42.1827 12.948 42.612 12.948C43.5267 12.948 44.1893 13.1067 44.6 13.424C45.0107 13.7413 45.216 14.3293 45.216 15.188V23.28ZM63.6249 24.26H58.8649V21.768C58.8649 21.0027 58.6689 20.4707 58.2769 20.172C57.9036 19.8547 57.4369 19.696 56.8769 19.696C56.3169 19.696 55.8222 19.7987 55.3929 20.004C54.9636 20.2093 54.5902 20.4333 54.2729 20.676V16.84C54.7022 16.616 55.2156 16.42 55.8129 16.252C56.4102 16.0653 57.0636 15.972 57.7729 15.972C59.6022 15.972 61.0302 16.4387 62.0569 17.372C63.1022 18.2867 63.6249 19.6587 63.6249 21.488V24.26ZM50.2409 22.608H55.0009V29.972C54.7956 30.028 54.4969 30.084 54.1049 30.14C53.7316 30.196 53.3209 30.224 52.8729 30.224C51.9582 30.224 51.2862 30.0653 50.8569 29.748C50.4462 29.4307 50.2409 28.8427 50.2409 27.984V22.608ZM58.8649 22.608H63.6249V29.972C63.4196 30.028 63.1209 30.084 62.7289 30.14C62.3556 30.196 61.9449 30.224 61.4969 30.224C60.5822 30.224 59.9102 30.0653 59.4809 29.748C59.0702 29.4307 58.8649 28.8427 58.8649 27.984V22.608ZM55.0009 25.1H50.2409V11.744C50.4462 11.688 50.7356 11.632 51.1089 11.576C51.5009 11.52 51.9209 11.492 52.3689 11.492C53.3022 11.492 53.9742 11.6507 54.3849 11.968C54.7956 12.2667 55.0009 12.8547 55.0009 13.732V25.1ZM65.1638 24.596V22.748H69.9238V24.596C69.9238 25.3427 70.1105 25.884 70.4838 26.22C70.8758 26.556 71.4171 26.724 72.1078 26.724C72.5371 26.724 72.8918 26.6867 73.1718 26.612C73.4518 26.5373 73.6571 26.4627 73.7878 26.388V22.748H78.5478V27.088C78.5478 27.5547 78.4451 27.9653 78.2398 28.32C78.0531 28.656 77.7638 28.9453 77.3718 29.188C76.7185 29.5987 75.9345 29.9067 75.0198 30.112C74.1238 30.336 73.1438 30.448 72.0798 30.448C70.7358 30.448 69.5411 30.252 68.4958 29.86C67.4505 29.4493 66.6291 28.8147 66.0318 27.956C65.4531 27.0973 65.1638 25.9773 65.1638 24.596ZM78.5478 23.952H73.7878V16.448C73.9931 16.392 74.2825 16.336 74.6558 16.28C75.0478 16.224 75.4678 16.196 75.9158 16.196C76.8491 16.196 77.5211 16.3547 77.9318 16.672C78.3425 16.9707 78.5478 17.5587 78.5478 18.436V23.952ZM69.9238 23.952H65.1638V16.448C65.3691 16.392 65.6585 16.336 66.0318 16.28C66.4238 16.224 66.8438 16.196 67.2918 16.196C68.2251 16.196 68.8971 16.3547 69.3078 16.672C69.7185 16.9707 69.9238 17.5587 69.9238 18.436V23.952ZM92.8287 20.648V23.812H88.0687V21.292C88.0687 20.732 87.9007 20.3307 87.5647 20.088C87.2474 19.8267 86.8554 19.696 86.3887 19.696C86.034 19.696 85.726 19.752 85.4647 19.864C85.2034 19.9573 84.9887 20.0507 84.8207 20.144V23.812H80.0607V19.556C80.0607 19.052 80.1634 18.6413 80.3687 18.324C80.5927 18.0067 80.8914 17.7173 81.2647 17.456C81.8994 17.008 82.6834 16.6533 83.6167 16.392C84.5687 16.112 85.558 15.972 86.5847 15.972C87.462 15.972 88.302 16.112 89.1047 16.392C89.9074 16.6533 90.6354 17.0827 91.2887 17.68C91.438 17.8107 91.5874 17.9413 91.7367 18.072C91.9047 18.2027 92.026 18.3427 92.1007 18.492C92.306 18.8093 92.474 19.1547 92.6047 19.528C92.754 19.9013 92.8287 20.2747 92.8287 20.648ZM100.837 21.152V23.812H96.0767V21.292C96.0767 20.732 95.9274 20.3307 95.6287 20.088C95.33 19.8267 94.938 19.696 94.4527 19.696C94.098 19.696 93.762 19.7707 93.4447 19.92C93.1274 20.0507 92.866 20.2 92.6607 20.368L90.0567 17.708C90.71 17.2413 91.4287 16.84 92.2127 16.504C93.0154 16.1493 94.0047 15.972 95.1807 15.972C96.1327 15.972 97.038 16.14 97.8967 16.476C98.774 16.812 99.4834 17.3627 100.025 18.128C100.566 18.8747 100.837 19.8827 100.837 21.152ZM80.0607 22.608H84.8207V29.972C84.6154 30.028 84.3167 30.084 83.9247 30.14C83.5514 30.196 83.1407 30.224 82.6927 30.224C81.778 30.224 81.106 30.0653 80.6767 29.748C80.266 29.4307 80.0607 28.8427 80.0607 27.984V22.608ZM88.0687 22.608H92.8287V29.972C92.6234 30.028 92.3247 30.084 91.9327 30.14C91.5594 30.196 91.1487 30.224 90.7007 30.224C89.786 30.224 89.114 30.0653 88.6847 29.748C88.274 29.4307 88.0687 28.8427 88.0687 27.984V22.608ZM96.0767 22.608H100.837V29.972C100.631 30.028 100.333 30.084 99.9407 30.14C99.5674 30.196 99.1567 30.224 98.7087 30.224C97.794 30.224 97.122 30.0653 96.6927 29.748C96.282 29.4307 96.0767 28.8427 96.0767 27.984V22.608ZM111.524 19.668V23.084H105.756V19.668H111.524ZM109.788 23.084L109.928 20.452C111.57 20.452 112.933 20.6293 114.016 20.984C115.098 21.3387 115.91 21.852 116.452 22.524C117.012 23.196 117.292 24.0267 117.292 25.016C117.292 26.8453 116.601 28.208 115.22 29.104C113.838 30 111.869 30.448 109.312 30.448C108.882 30.448 108.369 30.4293 107.772 30.392C107.174 30.3547 106.568 30.28 105.952 30.168C105.336 30.0747 104.776 29.9347 104.272 29.748C103.245 29.356 102.732 28.6747 102.732 27.704V14.628C102.732 14.236 102.844 13.9373 103.068 13.732C103.292 13.508 103.581 13.3307 103.936 13.2C104.57 12.976 105.364 12.8173 106.316 12.724C107.286 12.612 108.266 12.556 109.256 12.556C111.626 12.556 113.456 12.9667 114.744 13.788C116.05 14.5907 116.704 15.8227 116.704 17.484C116.704 18.4173 116.414 19.2013 115.836 19.836C115.276 20.452 114.473 20.9187 113.428 21.236C112.382 21.5347 111.141 21.684 109.704 21.684L109.536 19.668C110.338 19.668 110.917 19.5187 111.272 19.22C111.645 18.9213 111.832 18.4827 111.832 17.904C111.832 17.4 111.617 16.9987 111.188 16.7C110.777 16.4013 110.152 16.252 109.312 16.252C109.032 16.252 108.705 16.2613 108.332 16.28C107.977 16.2987 107.697 16.3267 107.492 16.364V26.5C107.753 26.5747 108.089 26.6307 108.5 26.668C108.929 26.6867 109.321 26.696 109.676 26.696C110.422 26.696 111.038 26.5467 111.524 26.248C112.028 25.9307 112.28 25.4453 112.28 24.792C112.28 24.176 112.065 23.7373 111.636 23.476C111.225 23.2147 110.609 23.084 109.788 23.084ZM120.518 25.324L120.35 22.188L126.818 21.124C126.78 20.7507 126.594 20.3773 126.258 20.004C125.922 19.6307 125.399 19.444 124.69 19.444C123.943 19.444 123.318 19.6867 122.814 20.172C122.328 20.6573 122.067 21.348 122.03 22.244L122.198 24.596C122.384 25.4547 122.804 26.052 123.458 26.388C124.13 26.724 124.876 26.892 125.698 26.892C126.482 26.892 127.228 26.7893 127.938 26.584C128.647 26.3787 129.216 26.1547 129.646 25.912C129.944 26.0987 130.196 26.36 130.402 26.696C130.607 27.032 130.71 27.3867 130.71 27.76C130.71 28.376 130.476 28.8893 130.01 29.3C129.562 29.692 128.936 29.9813 128.134 30.168C127.331 30.3547 126.407 30.448 125.362 30.448C123.906 30.448 122.59 30.1773 121.414 29.636C120.256 29.076 119.332 28.2453 118.642 27.144C117.97 26.0427 117.634 24.6613 117.634 23C117.634 21.768 117.83 20.704 118.222 19.808C118.632 18.912 119.174 18.184 119.846 17.624C120.518 17.064 121.264 16.6533 122.086 16.392C122.926 16.112 123.784 15.972 124.662 15.972C125.987 15.972 127.144 16.2333 128.134 16.756C129.123 17.26 129.898 17.96 130.458 18.856C131.018 19.7333 131.298 20.7507 131.298 21.908C131.298 22.5427 131.12 23.028 130.766 23.364C130.411 23.7 129.916 23.9147 129.282 24.008L120.518 25.324ZM134.485 25.324L134.317 22.188L140.785 21.124C140.747 20.7507 140.561 20.3773 140.225 20.004C139.889 19.6307 139.366 19.444 138.657 19.444C137.91 19.444 137.285 19.6867 136.781 20.172C136.295 20.6573 136.034 21.348 135.997 22.244L136.165 24.596C136.351 25.4547 136.771 26.052 137.425 26.388C138.097 26.724 138.843 26.892 139.665 26.892C140.449 26.892 141.195 26.7893 141.905 26.584C142.614 26.3787 143.183 26.1547 143.613 25.912C143.911 26.0987 144.163 26.36 144.369 26.696C144.574 27.032 144.677 27.3867 144.677 27.76C144.677 28.376 144.443 28.8893 143.977 29.3C143.529 29.692 142.903 29.9813 142.101 30.168C141.298 30.3547 140.374 30.448 139.329 30.448C137.873 30.448 136.557 30.1773 135.381 29.636C134.223 29.076 133.299 28.2453 132.609 27.144C131.937 26.0427 131.601 24.6613 131.601 23C131.601 21.768 131.797 20.704 132.189 19.808C132.599 18.912 133.141 18.184 133.813 17.624C134.485 17.064 135.231 16.6533 136.053 16.392C136.893 16.112 137.751 15.972 138.629 15.972C139.954 15.972 141.111 16.2333 142.101 16.756C143.09 17.26 143.865 17.96 144.425 18.856C144.985 19.7333 145.265 20.7507 145.265 21.908C145.265 22.5427 145.087 23.028 144.733 23.364C144.378 23.7 143.883 23.9147 143.249 24.008L134.485 25.324Z" fill="#10B981"/>
</svg>
