<svg width="136" height="39" viewBox="0 0 136 39" fill="none" xmlns="http://www.w3.org/2000/svg">
<path d="M16.8939 23.7284L9.47558 20.8322C4.03891 21.8484 4.03885 25.2527 4.03885 25.4559C3.68318 37.0407 0.27892 35.7704 0.0756791 36.0753C-0.889716 38.6158 7.69722 38.6666 8.05289 38.6666C15.9285 37.8028 18.8755 31.4516 18.8755 30.8926C19.6884 27.153 17.8931 24.5583 16.8939 23.7284Z" fill="#10B981"/>
<rect x="10.8019" y="15.9328" width="9.55233" height="3.25186" rx="1.62593" transform="rotate(22.5981 10.8019 15.9328)" fill="#10B981"/>
<path d="M23.5252 0.519572C27.1564 2.59928 24.3088 9.64538 21.3779 14.7506C20.3078 16.6146 17.1913 16.9543 15.1863 16.1801C13.1764 15.4041 12.8569 13.6151 13.478 11.5521C18.0506 -3.63502 23.2409 0.519572 23.5252 0.519572Z" fill="#10B981"/>
<path d="M40.296 19.664H44.328V21.992C44.328 22.392 44.456 22.688 44.712 22.88C44.984 23.056 45.36 23.144 45.84 23.144C46.08 23.144 46.328 23.128 46.584 23.096C46.84 23.048 47.064 22.992 47.256 22.928C47.4 23.088 47.52 23.28 47.616 23.504C47.728 23.728 47.784 23.992 47.784 24.296C47.784 24.888 47.552 25.384 47.088 25.784C46.64 26.168 45.84 26.36 44.688 26.36C43.28 26.36 42.192 26.04 41.424 25.4C40.672 24.76 40.296 23.72 40.296 22.28V19.664ZM42.936 17.72V14.6H47.472C47.568 14.76 47.656 14.976 47.736 15.248C47.832 15.52 47.88 15.816 47.88 16.136C47.88 16.696 47.752 17.104 47.496 17.36C47.256 17.6 46.928 17.72 46.512 17.72H42.936ZM44.328 20.24H40.296V11.624C40.472 11.576 40.72 11.528 41.04 11.48C41.376 11.416 41.728 11.384 42.096 11.384C42.88 11.384 43.448 11.52 43.8 11.792C44.152 12.064 44.328 12.568 44.328 13.304V20.24ZM60.1071 21.08H56.0271V18.944C56.0271 18.288 55.8591 17.832 55.5231 17.576C55.2031 17.304 54.8031 17.168 54.3231 17.168C53.8431 17.168 53.4191 17.256 53.0511 17.432C52.6831 17.608 52.3631 17.8 52.0911 18.008V14.72C52.4591 14.528 52.8991 14.36 53.4111 14.216C53.9231 14.056 54.4831 13.976 55.0911 13.976C56.6591 13.976 57.8831 14.376 58.7631 15.176C59.6591 15.96 60.1071 17.136 60.1071 18.704V21.08ZM48.6351 19.664H52.7151V25.976C52.5391 26.024 52.2831 26.072 51.9471 26.12C51.6271 26.168 51.2751 26.192 50.8911 26.192C50.1071 26.192 49.5311 26.056 49.1631 25.784C48.8111 25.512 48.6351 25.008 48.6351 24.272V19.664ZM56.0271 19.664H60.1071V25.976C59.9311 26.024 59.6751 26.072 59.3391 26.12C59.0191 26.168 58.6671 26.192 58.2831 26.192C57.4991 26.192 56.9231 26.056 56.5551 25.784C56.2031 25.512 56.0271 25.008 56.0271 24.272V19.664ZM52.7151 21.8H48.6351V10.352C48.8111 10.304 49.0591 10.256 49.3791 10.208C49.7151 10.16 50.0751 10.136 50.4591 10.136C51.2591 10.136 51.8351 10.272 52.1871 10.544C52.5391 10.8 52.7151 11.304 52.7151 12.056V21.8ZM61.4261 21.368V19.784H65.5061V21.368C65.5061 22.008 65.6661 22.472 65.9861 22.76C66.3221 23.048 66.7861 23.192 67.3781 23.192C67.7461 23.192 68.0501 23.16 68.2901 23.096C68.5301 23.032 68.7061 22.968 68.8181 22.904V19.784H72.8981V23.504C72.8981 23.904 72.8101 24.256 72.6341 24.56C72.4741 24.848 72.2261 25.096 71.8901 25.304C71.3301 25.656 70.6581 25.92 69.8741 26.096C69.1061 26.288 68.2661 26.384 67.3541 26.384C66.2021 26.384 65.1781 26.216 64.2821 25.88C63.3861 25.528 62.6821 24.984 62.1701 24.248C61.6741 23.512 61.4261 22.552 61.4261 21.368ZM72.8981 20.816H68.8181V14.384C68.9941 14.336 69.2421 14.288 69.5621 14.24C69.8981 14.192 70.2581 14.168 70.6421 14.168C71.4421 14.168 72.0181 14.304 72.3701 14.576C72.7221 14.832 72.8981 15.336 72.8981 16.088V20.816ZM65.5061 20.816H61.4261V14.384C61.6021 14.336 61.8501 14.288 62.1701 14.24C62.5061 14.192 62.8661 14.168 63.2501 14.168C64.0501 14.168 64.6261 14.304 64.9781 14.576C65.3301 14.832 65.5061 15.336 65.5061 16.088V20.816ZM85.1389 17.984V20.696H81.0589V18.536C81.0589 18.056 80.9149 17.712 80.6269 17.504C80.3549 17.28 80.0189 17.168 79.6189 17.168C79.3149 17.168 79.0509 17.216 78.8269 17.312C78.6029 17.392 78.4189 17.472 78.2749 17.552V20.696H74.1949V17.048C74.1949 16.616 74.2829 16.264 74.4589 15.992C74.6509 15.72 74.9069 15.472 75.2269 15.248C75.7709 14.864 76.4429 14.56 77.2429 14.336C78.0589 14.096 78.9069 13.976 79.7869 13.976C80.5389 13.976 81.2589 14.096 81.9469 14.336C82.6349 14.56 83.2589 14.928 83.8189 15.44C83.9469 15.552 84.0749 15.664 84.2029 15.776C84.3469 15.888 84.4509 16.008 84.5149 16.136C84.6909 16.408 84.8349 16.704 84.9469 17.024C85.0749 17.344 85.1389 17.664 85.1389 17.984ZM92.0029 18.416V20.696H87.9229V18.536C87.9229 18.056 87.7949 17.712 87.5389 17.504C87.2829 17.28 86.9469 17.168 86.5309 17.168C86.2269 17.168 85.9389 17.232 85.6669 17.36C85.3949 17.472 85.1709 17.6 84.9949 17.744L82.7629 15.464C83.3229 15.064 83.9389 14.72 84.6109 14.432C85.2989 14.128 86.1469 13.976 87.1549 13.976C87.9709 13.976 88.7469 14.12 89.4829 14.408C90.2349 14.696 90.8429 15.168 91.3069 15.824C91.7709 16.464 92.0029 17.328 92.0029 18.416ZM74.1949 19.664H78.2749V25.976C78.0989 26.024 77.8429 26.072 77.5069 26.12C77.1869 26.168 76.8349 26.192 76.4509 26.192C75.6669 26.192 75.0909 26.056 74.7229 25.784C74.3709 25.512 74.1949 25.008 74.1949 24.272V19.664ZM81.0589 19.664H85.1389V25.976C84.9629 26.024 84.7069 26.072 84.3709 26.12C84.0509 26.168 83.6989 26.192 83.3149 26.192C82.5309 26.192 81.9549 26.056 81.5869 25.784C81.2349 25.512 81.0589 25.008 81.0589 24.272V19.664ZM87.9229 19.664H92.0029V25.976C91.8269 26.024 91.5709 26.072 91.2349 26.12C90.9149 26.168 90.5629 26.192 90.1789 26.192C89.3949 26.192 88.8189 26.056 88.4509 25.784C88.0989 25.512 87.9229 25.008 87.9229 24.272V19.664ZM101.163 17.144V20.072H96.2192V17.144H101.163ZM99.6752 20.072L99.7952 17.816C101.203 17.816 102.371 17.968 103.299 18.272C104.227 18.576 104.923 19.016 105.387 19.592C105.867 20.168 106.107 20.88 106.107 21.728C106.107 23.296 105.515 24.464 104.331 25.232C103.147 26 101.459 26.384 99.2672 26.384C98.8992 26.384 98.4592 26.368 97.9472 26.336C97.4352 26.304 96.9152 26.24 96.3872 26.144C95.8592 26.064 95.3792 25.944 94.9472 25.784C94.0672 25.448 93.6272 24.864 93.6272 24.032V12.824C93.6272 12.488 93.7232 12.232 93.9152 12.056C94.1072 11.864 94.3552 11.712 94.6592 11.6C95.2032 11.408 95.8832 11.272 96.6992 11.192C97.5312 11.096 98.3712 11.048 99.2192 11.048C101.251 11.048 102.819 11.4 103.923 12.104C105.043 12.792 105.603 13.848 105.603 15.272C105.603 16.072 105.355 16.744 104.859 17.288C104.379 17.816 103.691 18.216 102.795 18.488C101.899 18.744 100.835 18.872 99.6032 18.872L99.4592 17.144C100.147 17.144 100.643 17.016 100.947 16.76C101.267 16.504 101.427 16.128 101.427 15.632C101.427 15.2 101.243 14.856 100.875 14.6C100.523 14.344 99.9872 14.216 99.2672 14.216C99.0272 14.216 98.7472 14.224 98.4272 14.24C98.1232 14.256 97.8832 14.28 97.7072 14.312V23C97.9312 23.064 98.2192 23.112 98.5712 23.144C98.9392 23.16 99.2752 23.168 99.5792 23.168C100.219 23.168 100.747 23.04 101.163 22.784C101.595 22.512 101.811 22.096 101.811 21.536C101.811 21.008 101.627 20.632 101.259 20.408C100.907 20.184 100.379 20.072 99.6752 20.072ZM108.872 21.992L108.728 19.304L114.272 18.392C114.24 18.072 114.08 17.752 113.792 17.432C113.504 17.112 113.056 16.952 112.448 16.952C111.808 16.952 111.272 17.16 110.84 17.576C110.424 17.992 110.2 18.584 110.168 19.352L110.312 21.368C110.472 22.104 110.832 22.616 111.392 22.904C111.968 23.192 112.608 23.336 113.312 23.336C113.984 23.336 114.624 23.248 115.232 23.072C115.84 22.896 116.328 22.704 116.696 22.496C116.952 22.656 117.168 22.88 117.344 23.168C117.52 23.456 117.608 23.76 117.608 24.08C117.608 24.608 117.408 25.048 117.008 25.4C116.624 25.736 116.088 25.984 115.4 26.144C114.712 26.304 113.92 26.384 113.024 26.384C111.776 26.384 110.648 26.152 109.64 25.688C108.648 25.208 107.856 24.496 107.264 23.552C106.688 22.608 106.4 21.424 106.4 20C106.4 18.944 106.568 18.032 106.904 17.264C107.256 16.496 107.72 15.872 108.296 15.392C108.872 14.912 109.512 14.56 110.216 14.336C110.936 14.096 111.672 13.976 112.424 13.976C113.56 13.976 114.552 14.2 115.4 14.648C116.248 15.08 116.912 15.68 117.392 16.448C117.872 17.2 118.112 18.072 118.112 19.064C118.112 19.608 117.96 20.024 117.656 20.312C117.352 20.6 116.928 20.784 116.384 20.864L108.872 21.992ZM120.844 21.992L120.7 19.304L126.244 18.392C126.212 18.072 126.052 17.752 125.764 17.432C125.476 17.112 125.028 16.952 124.42 16.952C123.78 16.952 123.244 17.16 122.812 17.576C122.396 17.992 122.172 18.584 122.14 19.352L122.284 21.368C122.444 22.104 122.804 22.616 123.364 22.904C123.94 23.192 124.58 23.336 125.284 23.336C125.956 23.336 126.596 23.248 127.204 23.072C127.812 22.896 128.3 22.704 128.668 22.496C128.924 22.656 129.14 22.88 129.316 23.168C129.492 23.456 129.58 23.76 129.58 24.08C129.58 24.608 129.38 25.048 128.98 25.4C128.596 25.736 128.06 25.984 127.372 26.144C126.684 26.304 125.892 26.384 124.996 26.384C123.748 26.384 122.62 26.152 121.612 25.688C120.62 25.208 119.828 24.496 119.236 23.552C118.66 22.608 118.372 21.424 118.372 20C118.372 18.944 118.54 18.032 118.876 17.264C119.228 16.496 119.692 15.872 120.268 15.392C120.844 14.912 121.484 14.56 122.188 14.336C122.908 14.096 123.644 13.976 124.396 13.976C125.532 13.976 126.524 14.2 127.372 14.648C128.22 15.08 128.884 15.68 129.364 16.448C129.844 17.2 130.084 18.072 130.084 19.064C130.084 19.608 129.932 20.024 129.628 20.312C129.324 20.6 128.9 20.784 128.356 20.864L120.844 21.992Z" fill="#10B981"/>
</svg>
